<?xml version="1.0" encoding="utf-8"?><!DOCTYPE svg PUBLIC "-//W3C//DTD SVG 1.1//EN" "http://www.w3.org/Graphics/SVG/1.1/DTD/svg11.dtd"><svg version="1.1" id="Layer_1" xmlns="http://www.w3.org/2000/svg" xmlns:xlink="http://www.w3.org/1999/xlink" x="0px" y="0px" width="120.78px" height="117.79px" viewBox="0 0 120.78 117.79" enable-background="new 0 0 120.78 117.79" xml:space="preserve"><g><path fill-rule="evenodd" clip-rule="evenodd" fill="#191717" d="M60.394,0C27.046,0,0.005,27.035,0.005,60.387 c0,26.682,17.303,49.316,41.297,57.303c3.018,0.559,4.126-1.311,4.126-2.906c0-1.439-0.056-6.197-0.082-11.242 c-16.8,3.652-20.345-7.125-20.345-7.125c-2.747-6.98-6.705-8.836-6.705-8.836c-5.479-3.748,0.413-3.672,0.413-3.672 c6.063,0.426,9.257,6.225,9.257,6.225c5.386,9.23,14.127,6.562,17.573,5.02c0.542-3.902,2.106-6.568,3.834-8.076 C35.96,85.551,21.86,80.371,21.86,57.233c0-6.593,2.359-11.98,6.223-16.209c-0.627-1.521-2.694-7.663,0.585-15.981 c0,0,5.071-1.622,16.61,6.191c4.817-1.338,9.983-2.009,15.116-2.033c5.131,0.023,10.301,0.694,15.127,2.033 c11.527-7.813,16.59-6.191,16.59-6.191c3.287,8.318,1.221,14.46,0.594,15.981c3.871,4.229,6.215,9.616,6.215,16.209 c0,23.194-14.127,28.3-27.574,29.796c2.166,1.873,4.096,5.549,4.096,11.182c0,8.08-0.07,14.584-0.07,16.572 c0,1.607,1.088,3.49,4.148,2.898c23.98-7.994,41.262-30.623,41.262-57.295C120.78,27.035,93.743,0,60.394,0z"/><path fill="#191717" d="M22.877,86.703c-0.133,0.301-0.605,0.391-1.035,0.184c-0.438-0.197-0.684-0.605-0.542-0.906 c0.13-0.309,0.603-0.395,1.04-0.189C22.779,85.988,23.029,86.402,22.877,86.703L22.877,86.703z M22.134,86.152"/><path fill="#191717" d="M25.324,89.432c-0.288,0.266-0.852,0.143-1.233-0.279c-0.396-0.422-0.469-0.984-0.177-1.256 c0.297-0.266,0.843-0.141,1.238,0.279C25.547,88.602,25.625,89.16,25.324,89.432L25.324,89.432z M24.748,88.812"/><path fill="#191717" d="M27.705,92.908c-0.37,0.258-0.976,0.018-1.35-0.52c-0.37-0.537-0.37-1.182,0.009-1.439 c0.374-0.258,0.971-0.025,1.35,0.506C28.083,92.002,28.083,92.646,27.705,92.908L27.705,92.908z M27.705,92.908"/><path fill="#191717" d="M30.966,96.27c-0.331,0.365-1.036,0.266-1.552-0.232c-0.528-0.486-0.675-1.178-0.344-1.543 c0.336-0.365,1.045-0.262,1.564,0.232C31.16,95.213,31.319,95.908,30.966,96.27L30.966,96.27z M30.966,96.27"/><path fill="#191717" d="M35.466,98.221c-0.146,0.473-0.825,0.688-1.509,0.486c-0.684-0.207-1.13-0.762-0.992-1.238 c0.142-0.477,0.824-0.701,1.513-0.486C35.161,97.189,35.608,97.738,35.466,98.221L35.466,98.221z M35.466,98.221"/><path fill="#191717" d="M40.409,98.582c0.017,0.498-0.563,0.91-1.281,0.92c-0.722,0.016-1.307-0.387-1.314-0.877 c0-0.504,0.567-0.912,1.289-0.924C39.82,97.688,40.409,98.088,40.409,98.582L40.409,98.582z M40.409,98.582"/><path fill="#191717" d="M45.007,97.799c0.086,0.486-0.413,0.984-1.126,1.117c-0.701,0.129-1.35-0.172-1.439-0.652 c-0.087-0.498,0.421-0.998,1.121-1.127C44.277,97.014,44.917,97.305,45.007,97.799L45.007,97.799z M45.007,97.799"/></g></svg>